<?xml version="1.0" encoding="UTF-8"?>
<svg id="Calque_3" data-name="Calque 3" xmlns="http://www.w3.org/2000/svg" viewBox="0 0 590.4 583.66">
  <defs>
    <style>
      .cls-1 {
        fill: none;
      }

      .cls-1, .cls-2 {
        stroke: #fff;
        stroke-miterlimit: 10;
      }

      .cls-3, .cls-4 {
        stroke-width: 0px;
      }

      .cls-4, .cls-2 {
        fill: #fff;
      }
    </style>
  </defs>
  <circle class="cls-3" cx="295.2" cy="291.83" r="274.85"/>
  <g>
    <path class="cls-4" d="m401.81,258.81c-.09,5.18-.53,10.4-1.32,15.62-1.94,13.01-6.01,26.02-12.48,38.57-9.82,6.36-19.55,13.82-28.94,22.26-4.58,4.14-8.94,8.39-13.08,12.73,11.86-9.38,23.99-17.66,36.15-24.75-9.78,15.32-23.37,29.65-41.25,41.95-86.21,65.89-83.23,114.01-83.23,114.01,0,0-6.52-14.21-10.56-35.59.6-25.1,5.55-53.85,15.05-83.6-2.22,4.95-4.35,10.08-6.33,15.32-5.27,13.91-9.15,27.69-11.72,40.82-1.2-39.2,11.35-88.68,69.1-123.88,9.22-8.09,14.58-16.22,17.47-23.85,3.42-9.11,3.3-17.5,1.99-24.24-1.92-9.71-6.38-15.97-6.38-15.97,0,0,24.57-19.14,22.77-49.9-8.97,5.85-28.61,2.43-28.61,2.43,0,0-22.86.14-47.77,16.8-9.29-11.58-17.08-24.5-22.97-38.55,10.65-4.83,22.97-8.64,37.19-11.16,68.78-8.74,116.14,48.28,114.93,110.98Z"/>
    <circle class="cls-2" cx="297.55" cy="501.35" r="30.75"/>
    <path class="cls-1" d="m232.66,173.64c-1.92-6.15-3.95-17.37-5.11-23.88-6.22-34.9-.12-69.13,15.23-98.2-6.4,22.88-7.88,47.56-3.42,72.55,2.2,12.23,7.24,24.62,11.89,35.6"/>
    <path class="cls-4" d="m254.36,212.87c-17.52,23.07-30.35,61.96-42.87,112.67-9.92-7.7-19.95-30.28-22.37-56.97.32,1.04.67,2.06,1.02,3.1,1.59,4.76,3.3,9.41,5.13,13.91-2.8-10.05-5.02-19.97-6.7-29.61.05-18,3.81-37.03,13.31-54.17-2.77,9.66-4.76,20.43-5.66,31.85-.3,3.67-.46,7.3-.53,10.84,2.89-21.84,8.6-41.51,16.06-57.13,1.43-1.76,2.96-3.47,4.55-5.13-.32-.62-.65-1.27-.95-1.9-.81-1.57-1.57-3.17-2.29-4.76-1.66-3.63-3.21-7.35-4.6-11.16-12.2-33.3-12.13-68.06-2.08-99.36-2.33,23.64.51,48.21,9.24,72.04,3.05,8.32,6.73,16.25,10.95,23.76.37.72.79,1.41,1.2,2.1,1.2,2.1,2.47,4.18,3.79,6.22.21-.14.39-.28.6-.42,5.06,16.13,12.62,30.97,22.19,44.12Z"/>
    <path class="cls-4" d="m211.51,333.03s-4.78,25.06,7.84,28.05c-15.56-2.16-14.11-4.75-14.11-4.75l6.27-23.3Z"/>
  </g>
</svg>