<?xml version="1.0" encoding="UTF-8"?>
<svg id="Calque_6" data-name="Calque 6" xmlns="http://www.w3.org/2000/svg" viewBox="0 0 711.27 703.15">
  <defs>
    <style>
      .cls-1 {
        fill: none;
      }

      .cls-1, .cls-2 {
        stroke: #fff;
        stroke-miterlimit: 10;
      }

      .cls-3 {
        stroke-width: 0px;
      }

      .cls-3, .cls-2 {
        fill: #fff;
      }
    </style>
  </defs>
  <g>
    <path class="cls-3" d="m465.01,217.48c-.09,5.14-.53,10.33-1.31,15.52-1.93,12.93-5.97,25.86-12.4,38.33-9.76,6.31-19.43,13.73-28.75,22.11-4.55,4.11-8.89,8.34-13,12.65,11.78-9.32,23.84-17.54,35.91-24.59-9.71,15.22-23.22,29.46-40.99,41.68-85.65,65.47-82.69,113.28-82.69,113.28,0,0-6.48-14.12-10.49-35.36.6-24.94,5.51-53.5,14.95-83.06-2.2,4.91-4.32,10.01-6.29,15.22-5.24,13.82-9.09,27.51-11.64,40.55-1.19-38.95,11.27-88.11,68.66-123.08,9.16-8.04,14.49-16.12,17.36-23.7,3.4-9.05,3.28-17.38,1.97-24.09-1.91-9.64-6.34-15.87-6.34-15.87,0,0,24.41-19.01,22.62-49.58-8.91,5.81-28.43,2.41-28.43,2.41,0,0-22.71.14-47.46,16.69-9.23-11.5-16.97-24.34-22.83-38.3,10.59-4.8,22.83-8.59,36.95-11.09,68.34-8.68,115.39,47.97,114.19,110.27Z"/>
    <circle class="cls-2" cx="361.42" cy="458.45" r="30.55"/>
    <path class="cls-1" d="m296.95,132.86c-1.91-6.11-3.93-17.25-5.08-23.73-6.18-34.67-.11-68.68,15.13-97.57-6.36,22.73-7.83,47.26-3.4,72.08,2.18,12.15,7.2,24.46,11.81,35.37"/>
    <path class="cls-3" d="m318.51,171.83c-17.41,22.92-30.15,61.56-42.6,111.94-9.85-7.65-19.82-30.08-22.23-56.6.32,1.03.67,2.04,1.01,3.08,1.58,4.73,3.28,9.35,5.1,13.82-2.78-9.99-4.98-19.84-6.66-29.42.05-17.89,3.79-36.79,13.23-53.82-2.76,9.6-4.73,20.3-5.63,31.64-.3,3.65-.46,7.26-.53,10.77,2.87-21.7,8.54-41.24,15.96-56.76,1.42-1.75,2.94-3.44,4.52-5.1-.32-.62-.64-1.26-.94-1.88-.8-1.56-1.56-3.15-2.27-4.73-1.65-3.61-3.19-7.3-4.57-11.09-12.12-33.09-12.06-67.63-2.07-98.72-2.32,23.49.51,47.9,9.19,71.58,3.03,8.27,6.68,16.14,10.88,23.61.37.71.78,1.4,1.19,2.09,1.19,2.09,2.46,4.16,3.77,6.18.21-.14.39-.28.6-.41,5.03,16.03,12.54,30.77,22.04,43.84Z"/>
    <path class="cls-3" d="m275.94,291.21s-4.75,24.9,7.79,27.87c-15.46-2.14-14.02-4.72-14.02-4.72l6.23-23.15Z"/>
  </g>
  <g>
    <path class="cls-3" d="m41.23,657.97c0-7.83,1.44-15.72,4.32-23.68,2.88-7.96,6.79-15.13,11.74-21.52,4.95-6.39,10.82-11.6,17.61-15.65,6.79-4.05,14.05-6.07,21.79-6.07s13.61,1.75,17.07,5.26c3.46,3.51,5.2,7.74,5.2,12.68,0,4.05-1.21,7.49-3.64,10.32-2.43,2.83-5.58,4.25-9.45,4.25-.99,0-1.94-.11-2.83-.34-.9-.22-1.71-.52-2.43-.88v-3.1c3.6-.54,6.12-1.82,7.56-3.85,1.44-2.02,2.16-4.47,2.16-7.35s-1.1-5.19-3.31-7.22c-2.2-2.02-5.69-3.04-10.46-3.04-5.76,0-10.05,1.1-12.89,3.31-2.83,2.21-4.97,4.75-6.41,7.62-1.89,3.87-3.49,7.96-4.79,12.28-1.31,4.32-3.13,9.63-5.46,15.92-1.98,4.86-3.78,8.68-5.4,11.47-1.62,2.79-3.02,5.11-4.18,6.95-1.17,1.84-2.07,3.51-2.7,4.99-.63,1.48-.95,3.4-.95,5.73,0,3.42,1.28,6.5,3.85,9.24,2.56,2.75,7.62,4.12,15.18,4.12,8.91,0,15.63-2.27,20.17-6.81,4.54-4.54,7.26-10.19,8.16-16.93h6.61c0,4.5-.83,8.66-2.5,12.48-1.67,3.82-4.05,7.11-7.15,9.85-3.1,2.75-6.86,4.9-11.27,6.48-4.41,1.57-9.31,2.36-14.71,2.36-9.36,0-16.85-2.34-22.47-7.02-5.62-4.68-8.43-11.96-8.43-21.86Z"/>
    <path class="cls-3" d="m148.24,645.29l-13.49,40.21h-4.45c-.9-3.06-1.55-6.25-1.96-9.58-.41-3.33-.61-6.97-.61-10.93,0-6.75,1.03-13.22,3.1-19.43,2.07-6.21,4.52-12.21,7.35-18.01,2.83-5.8,5.8-11.6,8.91-17.41,3.1-5.8,5.64-11.72,7.62-17.74h4.86c0,2.16-.52,6.84-1.55,14.03-1.03,7.2-2.99,15.88-5.87,26.04h37.65l13.49-40.08h4.45c.9,3.06,1.55,6.25,1.96,9.58.41,3.33.61,6.97.61,10.93,0,6.57-1.04,12.91-3.1,19.03-2.07,6.12-4.52,12.12-7.35,18.01-2.83,5.89-5.8,11.79-8.91,17.68-3.1,5.89-5.65,11.85-7.62,17.88h-4.86c0-1.17.14-3.12.41-5.87.27-2.74.76-6.09,1.48-10.05.72-3.96,1.66-8.45,2.83-13.49,1.17-5.04,2.61-10.44,4.32-16.19h-37.51c-.27.9-.54,1.8-.81,2.7-.27.9-.59,1.8-.94,2.7Z"/>
    <path class="cls-3" d="m232.71,621.54l4.05-1.08c1.98,2.16,3.28,4.27,3.91,6.34.63,2.07.94,4.36.94,6.88,0,3.96-1.15,8.95-3.44,14.98-2.29,6.03-4.48,12.41-6.54,19.16l-5.53,17.68h-4.32c-1.44-3.24-2.56-6.27-3.37-9.11-.81-2.83-1.21-5.64-1.21-8.43,0-4.77.88-8.97,2.63-12.62,1.75-3.64,3.71-6.97,5.87-9.99,2.16-3.01,4.12-6,5.87-8.97,1.75-2.97,2.63-6.16,2.63-9.58,0-.81-.13-1.71-.4-2.7-.27-.99-.63-1.84-1.08-2.56Zm8.5-13.49c-4.32,0-7.74-.99-10.26-2.97-2.52-1.98-3.78-4.77-3.78-8.37,0-2.07.4-4.18,1.21-6.34.81-2.16,1.89-4,3.24-5.53h3.1c-.27,1.44-.41,2.99-.41,4.66s.32,3.17.95,4.52c.63,1.35,1.64,2.48,3.04,3.37,1.39.9,3.35,1.35,5.87,1.35,4.41,0,8.12-1.48,11.13-4.45,3.01-2.97,5.46-6.12,7.35-9.45h4.32c-.81,2.61-1.94,5.31-3.37,8.1-1.44,2.79-3.22,5.29-5.33,7.49-2.12,2.21-4.59,4.03-7.42,5.46-2.83,1.44-6.05,2.16-9.65,2.16Z"/>
    <path class="cls-3" d="m293.43,685.1c-.27-2.7-.9-6.9-1.89-12.62-.99-5.71-2.05-12.03-3.17-18.96-1.13-6.93-2.11-14.12-2.97-21.59-.86-7.47-1.28-14.3-1.28-20.51l-23.07,74.08h-2.83c-.72-2.52-1.35-5.42-1.89-8.7-.54-3.28-.81-6.23-.81-8.84,0-5.76,1.1-11.65,3.31-17.68,2.2-6.03,4.88-12.14,8.03-18.35,3.15-6.21,6.45-12.62,9.92-19.23,3.46-6.61,6.45-13.38,8.97-20.31h7.69c.45,3.96,1.15,8.7,2.09,14.24.94,5.53,1.91,11.34,2.9,17.41.99,6.07,1.89,12.28,2.7,18.62s1.35,12.3,1.62,17.88c3.42-6.3,7.31-12.86,11.67-19.7,4.36-6.84,8.75-13.36,13.16-19.57,4.41-6.21,8.66-11.85,12.75-16.93,4.09-5.08,7.53-9.06,10.32-11.94h4.05c.72,3.33,1.21,6.34,1.48,9.04.27,2.7.4,5.71.4,9.04,0,5.94-.9,11.85-2.7,17.74-1.8,5.89-4.03,11.85-6.68,17.88-2.66,6.03-5.51,12.3-8.57,18.82-3.06,6.52-5.85,13.38-8.37,20.58h-4.45c0-1.62.11-3.75.34-6.41.22-2.65.58-5.51,1.08-8.57.49-3.06,1.1-6.23,1.82-9.51.72-3.28,1.53-6.36,2.43-9.24l12.95-40.08c-3.06,3.87-6.7,8.84-10.93,14.91-4.23,6.07-8.59,12.5-13.09,19.3-4.5,6.79-8.86,13.65-13.09,20.58-4.23,6.93-7.87,13.14-10.93,18.62h-2.97Z"/>
    <path class="cls-3" d="m373.18,685.5h-4.86c-1.98-2.34-3.71-4.97-5.19-7.89-1.49-2.92-2.23-6.05-2.23-9.38,0-4.05.83-8.07,2.5-12.08,1.66-4,3.91-7.98,6.75-11.94,2.83-3.96,6.16-7.96,9.99-12.01,3.82-4.05,7.89-8.14,12.21-12.28l29.82-28.07h6.21c2.25,4.41,3.89,8.79,4.92,13.16,1.03,4.36,1.55,9.11,1.55,14.24s-.7,10.23-2.09,15.59c-1.4,5.35-3.08,10.8-5.06,16.33-1.98,5.53-4.12,11.18-6.41,16.93-2.29,5.76-4.3,11.56-6,17.41h-5.4c0-4.95.41-10.41,1.21-16.39.81-5.98,1.66-11.49,2.56-16.53h-33.87c-1.98,4.59-3.49,9.58-4.52,14.98-1.04,5.4-1.73,11.38-2.09,17.95Zm28.47-62.88c-4.14,4.14-7.74,8.1-10.8,11.87-3.06,3.78-5.67,7.6-7.83,11.47h31.71l7.42-44.13-20.51,20.78Z"/>
    <path class="cls-3" d="m506.9,669.85c-.54,4.86-2.29,8.91-5.26,12.14-2.97,3.24-7.2,4.86-12.68,4.86-2.34,0-5.22-.18-8.64-.54-3.42-.36-6.91-.81-10.46-1.35-3.56-.54-7.02-1.06-10.39-1.55-3.37-.49-6.27-.88-8.7-1.15-.72-3.51-1.19-6.61-1.42-9.31-.22-2.7-.34-5.35-.34-7.96,0-6.66,1.06-13.2,3.17-19.63,2.11-6.43,4.61-12.68,7.49-18.76,2.88-6.07,5.8-11.99,8.77-17.74,2.97-5.76,5.26-11.24,6.88-16.46l35.62,1.89c3.6.18,6.32.02,8.16-.47,1.84-.49,3.17-1.28,3.98-2.36h1.48c0,5.49-1.1,9.2-3.31,11.13-2.21,1.94-5.2,2.9-8.97,2.9-2.61,0-5.44-.25-8.5-.74-3.06-.49-6.05-1.06-8.97-1.69-2.92-.63-5.69-1.3-8.3-2.02-2.61-.72-4.86-1.26-6.75-1.62-.45,4.41-1.3,9.56-2.56,15.45-1.26,5.89-2.7,11.76-4.32,17.61h31.98l-2.02,7.42h-32.12l-11.88,35.62h26.72c4.86,0,8.99-.43,12.41-1.28,3.42-.85,5.53-2.32,6.34-4.39h2.56Z"/>
    <path class="cls-3" d="m583.55,685.5c-5.13,0-9-1.12-11.6-3.37-2.61-2.25-3.91-5.44-3.91-9.58,0-2.07.27-3.98.81-5.73s1.1-3.44,1.69-5.06c.58-1.62,1.15-3.24,1.69-4.86.54-1.62.81-3.33.81-5.13,0-3.87-1.28-6.77-3.85-8.7-2.56-1.93-6.46-2.9-11.67-2.9h-10.66l-15.11,45.34h-4.45c-.72-2.52-1.33-5.46-1.82-8.84-.5-3.37-.74-7.26-.74-11.67,0-6.84.97-13.4,2.9-19.7,1.93-6.3,4.25-12.39,6.95-18.28,2.7-5.89,5.46-11.72,8.3-17.47,2.83-5.76,5.15-11.47,6.95-17.14,1.08,0,2.58-.04,4.52-.13,1.93-.09,4.03-.16,6.28-.2,2.25-.04,4.5-.11,6.75-.2,2.25-.09,4.18-.14,5.8-.14,8.82,0,15.9,1.75,21.25,5.26,5.35,3.51,8.03,8.5,8.03,14.98,0,4.32-.97,8.01-2.9,11.06-1.94,3.06-4.52,5.58-7.76,7.56-3.24,1.98-7.02,3.51-11.33,4.59-4.32,1.08-8.82,1.8-13.49,2.16,8.18.9,13.88,2.86,17.07,5.87,3.19,3.02,4.79,6.81,4.79,11.4,0,2.43-.54,4.7-1.62,6.81-1.08,2.11-2.25,4.07-3.51,5.87-1.26,1.8-2.43,3.51-3.51,5.13-1.08,1.62-1.62,3.19-1.62,4.72,0,1.35.49,2.43,1.48,3.24.99.81,2.52,1.35,4.59,1.62l-1.08,3.51Zm-27.12-85.96c-.72,4.41-1.82,9.6-3.31,15.59-1.49,5.98-2.95,11.94-4.39,17.88h8.23c7.83,0,13.65-.76,17.47-2.29,3.82-1.53,6.77-4.63,8.84-9.31,1.53-3.42,2.65-5.96,3.37-7.62.72-1.66,1.08-3.39,1.08-5.19,0-2.88-1.19-5.26-3.58-7.15-2.38-1.89-7.08-2.83-14.1-2.83-1.98,0-4.25.09-6.81.27-2.56.18-4.84.41-6.81.67Z"/>
    <path class="cls-3" d="m617.01,685.5h-4.86c-1.98-2.34-3.71-4.97-5.19-7.89-1.49-2.92-2.23-6.05-2.23-9.38,0-4.05.83-8.07,2.5-12.08,1.66-4,3.91-7.98,6.75-11.94,2.83-3.96,6.16-7.96,9.99-12.01,3.82-4.05,7.89-8.14,12.21-12.28l29.82-28.07h6.21c2.25,4.41,3.89,8.79,4.92,13.16,1.03,4.36,1.55,9.11,1.55,14.24s-.7,10.23-2.09,15.59c-1.4,5.35-3.08,10.8-5.06,16.33-1.98,5.53-4.12,11.18-6.41,16.93-2.29,5.76-4.3,11.56-6,17.41h-5.4c0-4.95.41-10.41,1.21-16.39.81-5.98,1.66-11.49,2.56-16.53h-33.87c-1.98,4.59-3.49,9.58-4.52,14.98-1.04,5.4-1.73,11.38-2.09,17.95Zm28.47-62.88c-4.14,4.14-7.74,8.1-10.8,11.87-3.06,3.78-5.67,7.6-7.83,11.47h31.71l7.42-44.13-20.51,20.78Z"/>
  </g>
</svg>