<?xml version="1.0" encoding="UTF-8"?>
<svg id="Calque_6" data-name="Calque 6" xmlns="http://www.w3.org/2000/svg" viewBox="0 0 720.8 311.53">
  <defs>
    <style>
      .cls-1 {
        fill: none;
      }

      .cls-1, .cls-2 {
        stroke: #fff;
        stroke-miterlimit: 10;
      }

      .cls-3 {
        stroke-width: 0px;
      }

      .cls-3, .cls-2 {
        fill: #fff;
      }
    </style>
  </defs>
  <g>
    <path class="cls-3" d="m137.4,134.48c-.05,2.79-.29,5.6-.71,8.42-1.05,7.01-3.24,14.02-6.72,20.78-5.29,3.42-10.53,7.44-15.59,11.99-2.46,2.23-4.82,4.52-7.05,6.86,6.39-5.05,12.92-9.51,19.47-13.33-5.27,8.25-12.59,15.97-22.22,22.59-46.43,35.49-44.83,61.41-44.83,61.41,0,0-3.51-7.66-5.69-19.17.32-13.52,2.99-29,8.1-45.03-1.2,2.66-2.34,5.43-3.41,8.25-2.84,7.49-4.93,14.91-6.31,21.98-.65-21.11,6.11-47.76,37.22-66.72,4.97-4.36,7.85-8.74,9.41-12.85,1.84-4.9,1.78-9.42,1.07-13.06-1.03-5.23-3.44-8.6-3.44-8.6,0,0,13.23-10.31,12.26-26.88-4.83,3.15-15.41,1.31-15.41,1.31,0,0-12.31.07-25.73,9.05-5-6.24-9.2-13.2-12.37-20.76,5.74-2.6,12.37-4.66,20.03-6.01,37.05-4.71,62.55,26,61.91,59.78Z"/>
    <circle class="cls-2" cx="81.24" cy="265.11" r="16.56"/>
    <path class="cls-1" d="m46.29,88.6c-1.03-3.31-2.13-9.35-2.75-12.86-3.35-18.8-.06-37.23,8.2-52.89-3.45,12.32-4.24,25.62-1.84,39.08,1.18,6.59,3.9,13.26,6.4,19.17"/>
    <path class="cls-3" d="m57.98,109.73c-9.44,12.42-16.34,33.37-23.09,60.69-5.34-4.15-10.74-16.31-12.05-30.69.17.56.36,1.11.55,1.67.86,2.56,1.78,5.07,2.76,7.49-1.51-5.42-2.7-10.76-3.61-15.95.02-9.7,2.05-19.94,7.17-29.18-1.49,5.2-2.56,11-3.05,17.15-.16,1.98-.25,3.93-.29,5.84,1.56-11.76,4.63-22.36,8.65-30.77.77-.95,1.59-1.87,2.45-2.76-.17-.34-.35-.68-.51-1.02-.44-.85-.85-1.71-1.23-2.56-.9-1.95-1.73-3.96-2.48-6.01-6.57-17.94-6.54-36.66-1.12-53.52-1.26,12.73.27,25.97,4.98,38.8,1.64,4.48,3.62,8.75,5.9,12.8.2.39.42.76.65,1.13.65,1.13,1.33,2.25,2.04,3.35.11-.07.21-.15.32-.22,2.73,8.69,6.8,16.68,11.95,23.76Z"/>
    <path class="cls-3" d="m34.9,174.45s-2.58,13.5,4.22,15.11c-8.38-1.16-7.6-2.56-7.6-2.56l3.38-12.55Z"/>
  </g>
  <g>
    <path class="cls-3" d="m152.99,193.38c0-6.69,1.23-13.45,3.69-20.26,2.46-6.81,5.81-12.95,10.04-18.41,4.23-5.46,9.25-9.93,15.06-13.39,5.81-3.46,12.02-5.19,18.64-5.19s11.64,1.5,14.6,4.5c2.96,3,4.44,6.62,4.44,10.85,0,3.46-1.04,6.41-3.12,8.83-2.08,2.42-4.77,3.64-8.08,3.64-.85,0-1.66-.1-2.42-.29-.77-.19-1.46-.44-2.08-.75v-2.65c3.08-.46,5.23-1.56,6.46-3.29,1.23-1.73,1.85-3.83,1.85-6.29s-.94-4.44-2.83-6.18c-1.89-1.73-4.87-2.6-8.95-2.6-4.93,0-8.6.94-11.02,2.83-2.42,1.89-4.25,4.06-5.48,6.52-1.62,3.31-2.98,6.81-4.1,10.5-1.12,3.69-2.67,8.24-4.67,13.62-1.69,4.16-3.23,7.43-4.62,9.81-1.39,2.39-2.58,4.37-3.58,5.94-1,1.58-1.77,3-2.31,4.27-.54,1.27-.81,2.91-.81,4.91,0,2.93,1.1,5.56,3.29,7.91,2.19,2.35,6.52,3.52,12.99,3.52,7.62,0,13.37-1.94,17.26-5.83s6.21-8.71,6.98-14.49h5.66c0,3.85-.71,7.41-2.13,10.68-1.42,3.27-3.46,6.08-6.12,8.43-2.65,2.35-5.87,4.2-9.64,5.54-3.77,1.35-7.96,2.02-12.58,2.02-8,0-14.41-2-19.22-6-4.81-4-7.21-10.23-7.21-18.7Z"/>
    <path class="cls-3" d="m244.52,182.53l-11.54,34.4h-3.81c-.77-2.62-1.33-5.35-1.67-8.2-.35-2.85-.52-5.96-.52-9.35,0-5.77.88-11.31,2.65-16.62,1.77-5.31,3.87-10.45,6.29-15.41s4.96-9.93,7.62-14.89c2.66-4.96,4.83-10.02,6.52-15.18h4.16c0,1.85-.44,5.85-1.33,12-.88,6.16-2.56,13.58-5.02,22.28h32.2l11.54-34.28h3.81c.77,2.62,1.33,5.35,1.67,8.2.35,2.85.52,5.96.52,9.35,0,5.62-.89,11.04-2.65,16.28-1.77,5.23-3.87,10.37-6.29,15.41-2.42,5.04-4.96,10.08-7.62,15.12-2.66,5.04-4.83,10.14-6.52,15.29h-4.16c0-1,.12-2.67.35-5.02.23-2.35.65-5.21,1.27-8.6.62-3.39,1.42-7.23,2.42-11.54,1-4.31,2.23-8.93,3.69-13.85h-32.09c-.23.77-.46,1.54-.69,2.31-.23.77-.5,1.54-.81,2.31Z"/>
    <path class="cls-3" d="m316.78,162.21l3.46-.92c1.69,1.85,2.81,3.66,3.35,5.43.54,1.77.81,3.73.81,5.89,0,3.39-.98,7.66-2.94,12.81-1.96,5.16-3.83,10.62-5.6,16.39l-4.73,15.12h-3.69c-1.23-2.77-2.19-5.37-2.89-7.79-.69-2.42-1.04-4.83-1.04-7.21,0-4.08.75-7.68,2.25-10.79,1.5-3.12,3.17-5.96,5.02-8.54,1.85-2.58,3.52-5.14,5.02-7.68,1.5-2.54,2.25-5.27,2.25-8.2,0-.69-.12-1.46-.35-2.31-.23-.85-.54-1.58-.92-2.19Zm7.27-11.54c-3.69,0-6.62-.85-8.77-2.54-2.16-1.69-3.23-4.08-3.23-7.16,0-1.77.35-3.58,1.04-5.43.69-1.85,1.62-3.42,2.77-4.73h2.66c-.23,1.23-.35,2.56-.35,3.98s.27,2.71.81,3.87c.54,1.15,1.4,2.12,2.6,2.89,1.19.77,2.87,1.15,5.02,1.15,3.77,0,6.94-1.27,9.52-3.81,2.58-2.54,4.67-5.23,6.29-8.08h3.69c-.69,2.23-1.66,4.54-2.89,6.93-1.23,2.39-2.75,4.52-4.56,6.41-1.81,1.89-3.92,3.44-6.35,4.67-2.42,1.23-5.18,1.85-8.25,1.85Z"/>
    <path class="cls-3" d="m368.72,216.58c-.23-2.31-.77-5.9-1.62-10.79-.85-4.89-1.75-10.29-2.71-16.22-.96-5.92-1.81-12.08-2.54-18.47-.73-6.39-1.1-12.24-1.1-17.55l-19.74,63.37h-2.42c-.62-2.15-1.15-4.64-1.62-7.45-.46-2.81-.69-5.33-.69-7.56,0-4.92.94-9.96,2.83-15.12,1.88-5.15,4.17-10.39,6.87-15.7,2.69-5.31,5.52-10.79,8.48-16.45,2.96-5.66,5.52-11.45,7.68-17.37h6.58c.38,3.39.98,7.45,1.79,12.18.81,4.73,1.63,9.7,2.48,14.89.85,5.19,1.62,10.5,2.31,15.93s1.15,10.52,1.38,15.29c2.92-5.39,6.25-11,9.98-16.85,3.73-5.85,7.48-11.43,11.25-16.74,3.77-5.31,7.41-10.14,10.91-14.49,3.5-4.35,6.44-7.75,8.83-10.22h3.46c.61,2.85,1.04,5.43,1.27,7.73.23,2.31.35,4.89.35,7.73,0,5.08-.77,10.14-2.31,15.18-1.54,5.04-3.44,10.14-5.71,15.29-2.27,5.16-4.71,10.52-7.33,16.1-2.62,5.58-5,11.45-7.16,17.6h-3.81c0-1.39.1-3.21.29-5.48.19-2.27.5-4.71.92-7.33.42-2.62.94-5.33,1.56-8.14.62-2.81,1.31-5.44,2.08-7.91l11.08-34.28c-2.62,3.31-5.73,7.56-9.35,12.75-3.62,5.19-7.35,10.7-11.2,16.51-3.85,5.81-7.58,11.68-11.2,17.6-3.62,5.93-6.73,11.24-9.35,15.93h-2.54Z"/>
    <path class="cls-3" d="m436.94,216.93h-4.16c-1.69-2-3.17-4.25-4.44-6.75-1.27-2.5-1.91-5.17-1.91-8.02,0-3.46.71-6.91,2.14-10.33,1.42-3.42,3.35-6.83,5.77-10.22,2.42-3.39,5.27-6.81,8.54-10.27,3.27-3.46,6.75-6.96,10.45-10.5l25.51-24.01h5.31c1.92,3.77,3.33,7.52,4.21,11.25.88,3.73,1.33,7.79,1.33,12.18s-.6,8.75-1.79,13.33c-1.19,4.58-2.64,9.23-4.33,13.97-1.69,4.73-3.52,9.56-5.48,14.49-1.96,4.93-3.68,9.89-5.14,14.89h-4.62c0-4.23.35-8.91,1.04-14.02.69-5.12,1.42-9.83,2.19-14.14h-28.97c-1.69,3.92-2.98,8.2-3.87,12.81-.89,4.62-1.48,9.74-1.79,15.35Zm24.36-53.79c-3.54,3.54-6.62,6.93-9.23,10.16-2.62,3.23-4.85,6.5-6.69,9.81h27.12l6.35-37.75-17.54,17.78Z"/>
    <path class="cls-3" d="m551.33,203.54c-.46,4.16-1.96,7.62-4.5,10.39-2.54,2.77-6.16,4.16-10.85,4.16-2,0-4.46-.16-7.39-.46-2.93-.31-5.91-.69-8.95-1.15-3.04-.46-6-.9-8.89-1.33-2.89-.42-5.37-.75-7.45-.98-.62-3-1.02-5.66-1.21-7.96-.19-2.31-.29-4.58-.29-6.81,0-5.69.9-11.29,2.71-16.79,1.81-5.5,3.94-10.85,6.41-16.04,2.46-5.19,4.96-10.25,7.5-15.18,2.54-4.92,4.5-9.62,5.89-14.08l30.47,1.62c3.08.16,5.41.02,6.98-.4,1.58-.42,2.71-1.1,3.41-2.02h1.27c0,4.69-.94,7.87-2.83,9.52-1.89,1.66-4.44,2.48-7.68,2.48-2.23,0-4.66-.21-7.27-.63-2.62-.42-5.18-.9-7.68-1.44-2.5-.54-4.87-1.11-7.1-1.73-2.23-.62-4.16-1.08-5.77-1.39-.39,3.77-1.12,8.18-2.19,13.22-1.08,5.04-2.31,10.06-3.69,15.06h27.36l-1.73,6.35h-27.47l-10.16,30.47h22.86c4.16,0,7.69-.36,10.62-1.1,2.92-.73,4.73-1.98,5.42-3.75h2.19Z"/>
    <path class="cls-3" d="m616.89,216.93c-4.39,0-7.7-.96-9.93-2.89-2.23-1.92-3.35-4.65-3.35-8.2,0-1.77.23-3.41.69-4.91s.94-2.94,1.44-4.33c.5-1.39.98-2.77,1.44-4.16.46-1.39.69-2.85.69-4.39,0-3.31-1.1-5.79-3.29-7.45-2.19-1.65-5.52-2.48-9.98-2.48h-9.12l-12.93,38.78h-3.81c-.62-2.15-1.14-4.67-1.56-7.56-.42-2.89-.63-6.21-.63-9.98,0-5.85.83-11.47,2.48-16.85,1.65-5.39,3.64-10.6,5.94-15.64,2.31-5.04,4.67-10.02,7.1-14.95,2.42-4.92,4.4-9.81,5.94-14.66.92,0,2.21-.04,3.87-.12,1.65-.08,3.44-.13,5.37-.17,1.92-.04,3.85-.1,5.77-.17,1.92-.08,3.58-.12,4.96-.12,7.54,0,13.6,1.5,18.18,4.5,4.58,3,6.87,7.27,6.87,12.81,0,3.69-.83,6.85-2.48,9.46-1.66,2.62-3.87,4.77-6.64,6.46-2.77,1.69-6,3-9.7,3.92-3.69.92-7.54,1.54-11.54,1.85,7,.77,11.87,2.44,14.6,5.02,2.73,2.58,4.1,5.83,4.1,9.75,0,2.08-.46,4.02-1.38,5.83-.92,1.81-1.92,3.48-3,5.02-1.08,1.54-2.08,3-3,4.39-.92,1.38-1.38,2.73-1.38,4.04,0,1.15.42,2.08,1.27,2.77.85.69,2.15,1.15,3.92,1.39l-.92,3Zm-23.2-73.53c-.62,3.77-1.56,8.22-2.83,13.33-1.27,5.12-2.52,10.22-3.75,15.29h7.04c6.7,0,11.68-.65,14.95-1.96,3.27-1.31,5.79-3.96,7.56-7.96,1.31-2.92,2.27-5.1,2.89-6.52.62-1.42.92-2.9.92-4.44,0-2.46-1.02-4.5-3.06-6.12-2.04-1.62-6.06-2.42-12.06-2.42-1.69,0-3.64.08-5.83.23-2.19.16-4.14.35-5.83.58Z"/>
    <path class="cls-3" d="m645.51,216.93h-4.16c-1.69-2-3.17-4.25-4.44-6.75-1.27-2.5-1.91-5.17-1.91-8.02,0-3.46.71-6.91,2.14-10.33,1.42-3.42,3.35-6.83,5.77-10.22,2.42-3.39,5.27-6.81,8.54-10.27,3.27-3.46,6.75-6.96,10.45-10.5l25.51-24.01h5.31c1.92,3.77,3.33,7.52,4.21,11.25.88,3.73,1.33,7.79,1.33,12.18s-.6,8.75-1.79,13.33c-1.19,4.58-2.64,9.23-4.33,13.97-1.69,4.73-3.52,9.56-5.48,14.49-1.96,4.93-3.68,9.89-5.14,14.89h-4.62c0-4.23.35-8.91,1.04-14.02.69-5.12,1.42-9.83,2.19-14.14h-28.97c-1.69,3.92-2.98,8.2-3.87,12.81-.89,4.62-1.48,9.74-1.79,15.35Zm24.36-53.79c-3.54,3.54-6.62,6.93-9.23,10.16-2.62,3.23-4.85,6.5-6.69,9.81h27.12l6.35-37.75-17.54,17.78Z"/>
  </g>
</svg>